<svg xmlns="http://www.w3.org/2000/svg" width="20.332" height="23.237" viewBox="0 0 20.332 23.237">
  <path id="Icon_metro-organization" data-name="Icon metro-organization" d="M21.926,10.642H7.4a2.906,2.906,0,0,0-2.9,2.9V15a2.89,2.89,0,0,0,1.452,2.5v4.76H11.76v2.9h5.809v-2.9h5.809V17.5A2.89,2.89,0,0,0,24.831,15V13.546A2.906,2.906,0,0,0,21.926,10.642ZM10.308,20.808H7.4V15H5.951V13.546A1.453,1.453,0,0,1,7.4,12.094H9.258a2.872,2.872,0,0,0-.4,1.452v2.9a2.89,2.89,0,0,0,1.452,2.5Zm7.261-2.9V15H16.117v8.714h-2.9V15H11.76v2.9a1.452,1.452,0,0,1-1.452-1.452v-2.9a1.453,1.453,0,0,1,1.452-1.452h5.809a1.452,1.452,0,0,1,1.452,1.452v2.9A1.451,1.451,0,0,1,17.569,17.9ZM23.379,15H21.926v5.809h-2.9V18.953a2.89,2.89,0,0,0,1.452-2.5v-2.9a2.872,2.872,0,0,0-.4-1.452h1.855a1.452,1.452,0,0,1,1.452,1.452V15ZM11.39,9.13a4.3,4.3,0,0,0,6.549,0A2.9,2.9,0,1,0,18.9,5.3a4.345,4.345,0,0,0-8.47,0,2.907,2.907,0,1,0,.96,3.828Zm9.084-2.845a1.452,1.452,0,1,1-1.452,1.452A1.451,1.451,0,0,1,20.474,6.285Zm-5.809-2.9a2.9,2.9,0,1,1-2.9,2.9,2.906,2.906,0,0,1,2.9-2.9ZM8.856,9.189a1.452,1.452,0,1,1,1.452-1.452A1.452,1.452,0,0,1,8.856,9.189Z" transform="translate(-4.499 -1.928)" fill="#4b00ea"/>
</svg>
