<svg xmlns="http://www.w3.org/2000/svg" width="21.969" height="21.969" viewBox="0 0 21.969 21.969">
  <g id="Icon_feather-settings" data-name="Icon feather-settings" transform="translate(-0.5 -0.5)">
    <path id="Path_19948" data-name="Path 19948" d="M18.946,16.223A2.723,2.723,0,1,1,16.223,13.5,2.723,2.723,0,0,1,18.946,16.223Z" transform="translate(-4.739 -4.739)" fill="none" stroke="#4200e5" stroke-linecap="round" stroke-linejoin="round" stroke-width="2"/>
    <path id="Path_19949" data-name="Path 19949" d="M18.2,14.207a1.5,1.5,0,0,0,.3,1.652l.054.054a1.816,1.816,0,1,1-2.569,2.569l-.054-.054a1.51,1.51,0,0,0-2.56,1.071v.154a1.815,1.815,0,1,1-3.631,0v-.082a1.5,1.5,0,0,0-.98-1.371,1.5,1.5,0,0,0-1.652.3l-.054.054a1.816,1.816,0,1,1-2.569-2.569l.054-.054a1.51,1.51,0,0,0-1.071-2.56H3.315a1.815,1.815,0,1,1,0-3.631H3.4a1.5,1.5,0,0,0,1.371-.98,1.5,1.5,0,0,0-.3-1.652l-.054-.054A1.816,1.816,0,1,1,6.982,4.486l.054.054a1.5,1.5,0,0,0,1.652.3h.073A1.5,1.5,0,0,0,9.669,3.47V3.315a1.815,1.815,0,1,1,3.631,0V3.4a1.51,1.51,0,0,0,2.56,1.071l.054-.054a1.816,1.816,0,1,1,2.569,2.569l-.054.054a1.5,1.5,0,0,0-.3,1.652v.073a1.5,1.5,0,0,0,1.371.908h.154a1.815,1.815,0,1,1,0,3.631h-.082a1.5,1.5,0,0,0-1.371.908Z" fill="none" stroke="#4200e5" stroke-linecap="round" stroke-linejoin="round" stroke-width="2"/>
  </g>
</svg>
