<svg xmlns="http://www.w3.org/2000/svg" width="24.87" height="21.317" viewBox="0 0 24.87 21.317">
  <g id="Icon_ionic-md-paper" data-name="Icon ionic-md-paper" transform="translate(-2.25 -4.5)">
    <path id="Path_19943" data-name="Path 19943" d="M26.232,4.5h-15.1a.915.915,0,0,0-.888.916V7.165H4.582A2.338,2.338,0,0,0,2.25,9.5V21.015a4.812,4.812,0,0,0,4.774,4.8H22.551a4.58,4.58,0,0,0,4.569-4.552V5.388A.891.891,0,0,0,26.232,4.5ZM10.244,8.941V19.6H7.912V10.007a2.711,2.711,0,0,0-.183-1.066ZM9.3,23.119a3.278,3.278,0,0,1-2.248.922,3.033,3.033,0,0,1-3.025-3.025V10.007a1.055,1.055,0,1,1,2.11,0V20.488a.891.891,0,0,0,.888.888h3.192A2.921,2.921,0,0,1,9.3,23.119Zm16.043-1.854a2.805,2.805,0,0,1-2.792,2.776H10.871a4.641,4.641,0,0,0,1.149-3.025V6.332H25.344Z" fill="#4200e5"/>
    <path id="Path_19944" data-name="Path 19944" d="M17.438,9.563H26.32v3.109H17.438Z" transform="translate(-3.197 -1.066)" fill="#4200e5"/>
    <path id="Path_19945" data-name="Path 19945" d="M17.438,15.75H26.32v1.776H17.438Z" transform="translate(-3.197 -2.368)" fill="#4200e5"/>
    <path id="Path_19946" data-name="Path 19946" d="M17.438,20.25H26.32v1.776H17.438Z" transform="translate(-3.197 -3.315)" fill="#4200e5"/>
    <path id="Path_19947" data-name="Path 19947" d="M26.2,24.75H17.319s0,1.776-.444,1.776H25.13C26.2,26.526,26.2,25.361,26.2,24.75Z" transform="translate(-3.078 -4.262)" fill="#4200e5"/>
  </g>
</svg>
