<svg id="Group_14641" data-name="Group 14641" xmlns="http://www.w3.org/2000/svg" xmlns:xlink="http://www.w3.org/1999/xlink" width="737.247" height="437.5" viewBox="0 0 737.247 437.5">
  <defs>
    <clipPath id="clip-path">
      <rect id="Rectangle_5791" data-name="Rectangle 5791" width="737.247" height="437.5" fill="none"/>
    </clipPath>
    <clipPath id="clip-path-2">
      <rect id="Rectangle_5735" data-name="Rectangle 5735" width="737.246" height="437.5" fill="none"/>
    </clipPath>
    <clipPath id="clip-path-3">
      <path id="Path_19959" data-name="Path 19959" d="M91.9,583.092H723.974c163.3-217.338-48.07-323.551-242.052-363.609a463.768,463.768,0,0,0-113.409-14.258C163.877,205.243-6.682,346.679,91.9,583.092" transform="translate(-63.164 -205.224)" fill="none"/>
    </clipPath>
    <clipPath id="clip-path-4">
      <rect id="Rectangle_5736" data-name="Rectangle 5736" width="509.944" height="204.311" fill="none"/>
    </clipPath>
    <clipPath id="clip-path-6">
      <path id="Path_19970" data-name="Path 19970" d="M526.955,589.406c.354,20.158,24.966,21.839,24.38.09.3-10.74-5.5-15.849-11.51-15.849-6.21,0-12.655,5.445-12.87,15.759" transform="translate(-526.955 -573.647)" fill="none"/>
    </clipPath>
    <clipPath id="clip-path-8">
      <path id="Path_19977" data-name="Path 19977" d="M485.087,957.84s38.874,75.475,39.629,76.485,14.971,69.22,14.971,69.22h11.99s-1.086-75.715-1.086-79.027c0-6.417-21.808-70.747-21.808-70.747Z" transform="translate(-485.087 -953.77)" fill="none"/>
    </clipPath>
    <clipPath id="clip-path-10">
      <path id="Path_19985" data-name="Path 19985" d="M628.843,848.623l4.274,16.641,43.728,1.652,1.381-6.564L635.8,851.86l-3.055-6.629Z" transform="translate(-628.843 -845.231)" fill="none"/>
    </clipPath>
    <clipPath id="clip-path-12">
      <path id="Path_19990" data-name="Path 19990" d="M450.308,878.057c.249.642,29.192,28.1,37.585,36.06l6.448,7.85c4.5.707,9.7-3.784,12-6.336l-8.725-5.852c-5.833-6.281-29.911-36.782-30.386-37.511,0-.423,2.128-9.307,2.128-9.307l-17.346-4.113s-2.857,16.246-1.708,19.211" transform="translate(-450.036 -858.847)" fill="none"/>
    </clipPath>
    <clipPath id="clip-path-14">
      <path id="Path_20002" data-name="Path 20002" d="M1267.718,917.7l3.055,160.13h10.768l22.568-160.49Z" transform="translate(-1267.718 -917.337)" fill="none"/>
    </clipPath>
    <clipPath id="clip-path-16">
      <path id="Path_20006" data-name="Path 20006" d="M1374.174,1077.827h10.768l1.319-159.393-34.655-1.1Z" transform="translate(-1351.606 -917.337)" fill="none"/>
    </clipPath>
    <clipPath id="clip-path-18">
      <path id="Path_20011" data-name="Path 20011" d="M1353.286,586.8c.321,20.633,25.465,20.63,25.784,0-.16-10.315-6.527-15.472-12.892-15.473s-12.732,5.157-12.892,15.474" transform="translate(-1353.286 -571.326)" fill="none"/>
    </clipPath>
    <clipPath id="clip-path-20">
      <path id="Path_20032" data-name="Path 20032" d="M2179.588,938.919l.855,3.635,1.072-3.635Z" transform="translate(-2179.588 -938.919)" fill="none"/>
    </clipPath>
    <clipPath id="clip-path-22">
      <path id="Path_20035" data-name="Path 20035" d="M2185.1,940.991l1.938-3.257-1.867-.477Z" transform="translate(-2185.098 -937.257)" fill="none"/>
    </clipPath>
    <clipPath id="clip-path-24">
      <path id="Path_20070" data-name="Path 20070" d="M1846.941,1269.386h8.684c1.345-15.276,4.8-67.092,10.193-80.844l-24.094-3.374c-3.105,14.238,3.755,70.8,5.218,84.218" transform="translate(-1840.926 -1185.168)" fill="none"/>
    </clipPath>
    <clipPath id="clip-path-26">
      <path id="Path_20073" data-name="Path 20073" d="M1940.742,1180.307c2,14.434,27.978,65.148,33.984,77.234l8.441-1.769c-4-14.851-18.979-65.836-18.648-80.62Z" transform="translate(-1940.742 -1175.152)" fill="none"/>
    </clipPath>
    <clipPath id="clip-path-28">
      <path id="Path_20078" data-name="Path 20078" d="M1824.764,947.383l-6.936,74.325s38.408,8.577,74.191-1.4l-8.855-40.133.494-35.019Z" transform="translate(-1817.828 -945.159)" fill="none"/>
    </clipPath>
    <clipPath id="clip-path-30">
      <path id="Path_20082" data-name="Path 20082" d="M1856.253,688.553c-10.66.472-19.358,12.061-19.768,23.393-.079,1.137-4.017,58-4.017,58s46.539,8.407,66.4-5.4l-13.334-56.612c-3.07-13.106-12.63-20.005-23.549-20.006a27.457,27.457,0,0,0-5.734.617" transform="translate(-1832.468 -687.936)" fill="none"/>
    </clipPath>
    <clipPath id="clip-path-32">
      <path id="Path_20088" data-name="Path 20088" d="M1876.505,584.856c-2.48,19.03,20.66,22.413,23.729,3.467,1.351-10.367-4.9-16.091-11.369-16.089-5.405,0-10.963,4-12.36,12.622" transform="translate(-1876.319 -572.234)" fill="none"/>
    </clipPath>
    <clipPath id="clip-path-34">
      <path id="Path_20099" data-name="Path 20099" d="M1650.907,800.825l-45.708,1.8c-1.493-1.524-4.844-4.571-8.2-5.07-4.5-.67,2.3,4.118,2.3,4.884s-14.174,1.341-14.461,3.256,5.938,8.8,7.949,8.854,13.712-3.679,13.712-3.679l40.484,7.508a12.338,12.338,0,0,0,10.708-3.149l1.425-20.581-3.956-4.081Z" transform="translate(-1584.829 -790.566)" fill="none"/>
    </clipPath>
  </defs>
  <g id="Group_14640" data-name="Group 14640" clip-path="url(#clip-path)">
    <g id="Group_14572" data-name="Group 14572">
      <g id="Group_14571" data-name="Group 14571" clip-path="url(#clip-path-2)">
        <path id="Path_19957" data-name="Path 19957" d="M723.963,583.092H91.884C-24.594,303.748,234.628,157.008,481.911,219.483c193.982,40.058,405.353,146.271,242.052,363.609" transform="translate(-45.069 -146.465)" fill="#dcecfd"/>
      </g>
    </g>
    <g id="Group_14577" data-name="Group 14577" transform="translate(18.085 58.759)">
      <g id="Group_14576" data-name="Group 14576" clip-path="url(#clip-path-3)">
        <g id="Group_14575" data-name="Group 14575" transform="translate(-18.085 173.557)" opacity="0.7">
          <g id="Group_14574" data-name="Group 14574">
            <g id="Group_14573" data-name="Group 14573" clip-path="url(#clip-path-4)">
              <path id="Path_19958" data-name="Path 19958" d="M0,1015.7V855.838H105.072V811.392H224.5v98.836h114.39v63.848H509.943V1015.7Z" transform="translate(0 -811.392)" fill="#f1f8fe"/>
            </g>
          </g>
        </g>
      </g>
    </g>
    <g id="Group_14579" data-name="Group 14579">
      <g id="Group_14578" data-name="Group 14578" clip-path="url(#clip-path-2)">
        <path id="Path_19960" data-name="Path 19960" d="M632.764,243.373C599.553,216.318,628.508,174.1,671.2,175.3c87.179,5.474,54.84,99.112-19.713,77.814l-23.712,10.047Z" transform="translate(-441.305 -125.088)" fill="#bedbfa"/>
        <path id="Path_19961" data-name="Path 19961" d="M1190.342,245.173c-.13,61.38-117.925,61.373-118.043,0,.129-61.377,117.924-61.37,118.043,0" transform="translate(-765.28 -142.123)" fill="#bedbfa"/>
        <path id="Path_19962" data-name="Path 19962" d="M1597.449,209.051c33.211-27.055,4.256-69.274-38.432-68.076-87.179,5.474-54.84,99.112,19.713,77.814l23.712,10.047Z" transform="translate(-1075.298 -100.593)" fill="#bedbfa"/>
        <path id="Path_19963" data-name="Path 19963" d="M1570.585,109.243l-2.879,29.085-29.085-2.879c7.43,9.265-.819,24.217-12.78,22.616-12.039-.774-17.2-17.056-8.1-24.682l-29.085-2.879,2.879-29.085c-9.265,7.43-24.217-.819-22.616-12.78.775-12.039,17.057-17.2,24.683-8.1l2.879-29.085,29.085,2.88c-7.43-9.265.819-24.217,12.78-22.616,12.039.774,17.2,17.056,8.1,24.682l29.085,2.879-4.946,49.963" transform="translate(-1048.257 -22.552)" fill="#f9ce68"/>
        <path id="Path_19964" data-name="Path 19964" d="M660.014,134.25l5.888,25.913,28.5-6.476c-6.22,10.117,3.826,23.927,15.494,20.85,11.849-2.267,14.947-19.064,4.963-25.5l28.5-6.476-6.476-28.5c10.117,6.219,23.927-3.826,20.85-15.495-2.267-11.849-19.065-14.947-25.5-4.963l-6.476-28.5-28.5,6.476c6.219-10.117-3.826-23.927-15.495-20.85C669.917,53,666.819,69.794,676.8,76.228L648.3,82.7l11.712,51.547" transform="translate(-462.681 -35.893)" fill="#f9ce68"/>
        <path id="Path_19965" data-name="Path 19965" d="M1145.907,49.55a15.018,15.018,0,0,1,10.449,3.078L1153.738,21.7,1122.8,24.313c8.031-9.727-.5-25.732-13.231-24.213-12.8.641-18.528,17.855-8.973,26.092l-30.933,2.618,2.618,30.934c8.239-9.552,25.45-3.828,26.092,8.974,1.519,12.723-14.487,21.265-24.213,13.23l2.618,30.933,30.933-2.618c-8.031,9.727.5,25.732,13.23,24.213,12.8-.641,18.528-17.854,8.973-26.091l30.933-2.618-2.618-30.934c-8.24,9.553-25.45,3.827-26.092-8.973a15.09,15.09,0,0,1,13.764-16.308" transform="translate(-763.403 0)" fill="#f08f3c"/>
        <path id="Path_19966" data-name="Path 19966" d="M683.024,1469.987l1.387,4.859,14.983,6.422a4.855,4.855,0,0,1,2.942,4.462H671.394l1.174-15.743Z" transform="translate(-479.162 -1049.103)" fill="#152e60"/>
        <path id="Path_19967" data-name="Path 19967" d="M433.219,1465.951l-.784,4.263,13.765,5.9a4.458,4.458,0,0,1,2.7,4.1H420.476c-.506-8.1.99-10.669,3.579-17.958Z" transform="translate(-300.016 -1043.583)" fill="#152e60"/>
        <path id="Path_19968" data-name="Path 19968" d="M526.956,589.406c.353,20.158,24.966,21.839,24.379.09.608-21.83-23.957-20.394-24.379-.09" transform="translate(-376.079 -409.401)" fill="#f4d2c6"/>
      </g>
    </g>
    <g id="Group_14581" data-name="Group 14581" transform="translate(150.877 164.246)">
      <g id="Group_14580" data-name="Group 14580" clip-path="url(#clip-path-6)">
        <path id="Path_19969" data-name="Path 19969" d="M572.767,602.393s-12.378-1.089-19.112-6.238l.5-5.942,18.023,2.611Z" transform="translate(-546.01 -585.47)" fill="#eda19d"/>
      </g>
    </g>
    <g id="Group_14583" data-name="Group 14583">
      <g id="Group_14582" data-name="Group 14582" clip-path="url(#clip-path-2)">
        <path id="Path_19971" data-name="Path 19971" d="M523.788,625.024s1.281,24.578-1.311,31.86c0,0,8.146,2.469,16.169,0,0,0-5.061-20.983-4.073-25.8Z" transform="translate(-372.882 -446.068)" fill="#f4d2c6"/>
        <path id="Path_19972" data-name="Path 19972" d="M539.461,569.661a25.024,25.024,0,0,1-12.782,4.59c-1.061,9.8-1.808,7.373-9.961,10.95,0,0-5.1-6.98-4.483-13.7s8.014-14.219,12.564-14.322,20.01,4.556,20.01,4.556l-4.964,2.011,5.274.569s-3.459,4.39-5.659,5.349" transform="translate(-365.536 -397.646)" fill="#59445a"/>
        <path id="Path_19973" data-name="Path 19973" d="M547.7,627.772c1.967,4.086-2.814,6.416-4.82,2.35-1.967-4.086,2.815-6.416,4.82-2.35" transform="translate(-387.112 -446.515)" fill="#f4d2c6"/>
        <path id="Path_19974" data-name="Path 19974" d="M563.871,672.595l-1.462-4.547s2.569,4.844,10.682.856c0,0-3.447,4.767-9.221,3.691" transform="translate(-401.381 -476.774)" fill="#eda19d"/>
        <path id="Path_19975" data-name="Path 19975" d="M528.783,953.771s21.808,64.33,21.808,70.747c0,3.312,1.086,79.027,1.086,79.027h-11.99s-14.215-68.21-14.971-69.219-39.63-76.485-39.63-76.485Z" transform="translate(-346.198 -680.689)" fill="#324d90"/>
      </g>
    </g>
    <g id="Group_14585" data-name="Group 14585" transform="translate(138.889 273.082)">
      <g id="Group_14584" data-name="Group 14584" clip-path="url(#clip-path-8)">
        <path id="Path_19976" data-name="Path 19976" d="M592.831,1129l5.518-19.1s16.81,40.024,16.976,45.647,4.38,59.425,4.38,59.425l-8.774,2.37c-2.611-13.53-12.514-77-18.1-88.338" transform="translate(-561.982 -1065.197)" fill="#2a437d"/>
      </g>
    </g>
    <g id="Group_14587" data-name="Group 14587">
      <g id="Group_14586" data-name="Group 14586" clip-path="url(#clip-path-2)">
        <path id="Path_19978" data-name="Path 19978" d="M443.973,967.016l-.395,74-16.1,66.852,12.017,4.85,28.871-59.041c6.431-9.895,12.352-74.858,14.922-87.052Z" transform="translate(-305.084 -689.864)" fill="#324d90"/>
        <path id="Path_19979" data-name="Path 19979" d="M482.346,701.538a17.746,17.746,0,0,0-16.335,16.173l-5.527,64.2s26.68,12.841,55.993-5.267L500.9,714.892c-2.112-8.372-11.529-12.474-18.553-13.354" transform="translate(-328.639 -500.675)" fill="#4292f3"/>
        <path id="Path_19980" data-name="Path 19980" d="M455.976,746.126l21.834,9.334-7.5,28.04-24.776-5.875Z" transform="translate(-317.969 -532.497)" fill="#4292f3"/>
        <path id="Path_19981" data-name="Path 19981" d="M466.379,827.757l17.534,4.158,4.8-17.95c-1.438,27.327,5.457,28.183-24.12,34.514Z" transform="translate(-331.573 -580.911)" fill="#3c7ed7"/>
        <path id="Path_19982" data-name="Path 19982" d="M601.64,748.181l12.9,26.735-5.114,4.445Z" transform="translate(-429.379 -533.963)" fill="#3c7ed7"/>
        <path id="Path_19983" data-name="Path 19983" d="M632.745,845.23l3.055,6.629,42.426,8.491-1.382,6.564-43.728-1.652-4.274-16.641Z" transform="translate(-448.793 -603.226)" fill="#f4d2c6"/>
      </g>
    </g>
    <g id="Group_14589" data-name="Group 14589" transform="translate(180.049 242.005)">
      <g id="Group_14588" data-name="Group 14588" clip-path="url(#clip-path-10)">
        <path id="Path_19984" data-name="Path 19984" d="M622.592,835.575l-5.87,21.518-6.708-19.355,10.5-7.759Z" transform="translate(-615.405 -834.346)" fill="#eda19d"/>
      </g>
    </g>
    <g id="Group_14591" data-name="Group 14591">
      <g id="Group_14590" data-name="Group 14590" clip-path="url(#clip-path-2)">
        <path id="Path_19986" data-name="Path 19986" d="M786.663,888.386s12.031-4.725,12.107-3.738-4.4,3.417-3.873,4.1,11.848-.3,12,.532-4.936,7.974-8.886,7.67-13.9-2.045-13.9-2.045Z" transform="translate(-559.604 -631.26)" fill="#f4d2c6"/>
        <path id="Path_19987" data-name="Path 19987" d="M501.365,978.1l-14.027-26.574a3.029,3.029,0,0,1,1.265-4.093l36.169-19.092a3.03,3.03,0,0,1,4.093,1.265l14.027,26.574a3.029,3.029,0,0,1-1.265,4.093l-36.169,19.092a3.029,3.029,0,0,1-4.093-1.265" transform="translate(-347.554 -662.289)" fill="#152e60"/>
        <path id="Path_19988" data-name="Path 19988" d="M452.017,858.848l17.346,4.113s-2.128,8.884-2.128,9.307c.474.729,24.553,31.23,30.386,37.511l8.725,5.852c-2.3,2.552-7.5,7.044-12,6.336l-6.448-7.85c-8.393-7.955-37.336-35.417-37.584-36.059-1.148-2.965,1.708-19.211,1.708-19.211" transform="translate(-321.183 -612.944)" fill="#f4d2c6"/>
      </g>
    </g>
    <g id="Group_14593" data-name="Group 14593" transform="translate(128.854 245.904)">
      <g id="Group_14592" data-name="Group 14592" clip-path="url(#clip-path-12)">
        <path id="Path_19989" data-name="Path 19989" d="M469.428,867.088l-19.391-9.568,1.364-6.171,19.553,5.547Z" transform="translate(-450.036 -853.496)" fill="#eda19d"/>
      </g>
    </g>
    <g id="Group_14595" data-name="Group 14595">
      <g id="Group_14594" data-name="Group 14594" clip-path="url(#clip-path-2)">
        <path id="Path_19991" data-name="Path 19991" d="M946.289,751.444,914.3,754.792V722.806h31.986Z" transform="translate(-652.522 -515.854)" fill="#fff"/>
        <path id="Path_19992" data-name="Path 19992" d="M963.38,717.756c.055,3.742-5.824,3.742-5.769,0-.055-3.742,5.824-3.742,5.769,0" transform="translate(-683.429 -510.246)" fill="#324d90"/>
        <path id="Path_19993" data-name="Path 19993" d="M914.3,791.368l33.513-.486-1.527-16.826v13.964Z" transform="translate(-652.522 -552.43)" fill="#a7c9e8"/>
        <path id="Path_19994" data-name="Path 19994" d="M1100.731,708.542l-13.817-2.086-18.169,2.086V676.556h31.986Z" transform="translate(-762.744 -482.846)" fill="#fff"/>
        <path id="Path_19995" data-name="Path 19995" d="M1117.821,671.5c.055,3.743-5.824,3.743-5.769,0-.055-3.742,5.824-3.742,5.769,0" transform="translate(-793.651 -477.237)" fill="#324d90"/>
        <path id="Path_19996" data-name="Path 19996" d="M1068.745,762.563a253.434,253.434,0,0,0,32.894,1.529l-.908-11.843v10.313l-13.817-2.086Z" transform="translate(-762.744 -536.866)" fill="#a7c9e8"/>
        <path id="Path_19997" data-name="Path 19997" d="M811.246,678.477l-31.78,1.585V648.076h31.986l-1.583,19.817Z" transform="translate(-556.291 -462.52)" fill="#fff"/>
        <path id="Path_19998" data-name="Path 19998" d="M828.542,643.025c.055,3.742-5.824,3.742-5.769,0-.055-3.742,5.824-3.742,5.769,0" transform="translate(-587.198 -456.912)" fill="#324d90"/>
        <path id="Path_19999" data-name="Path 19999" d="M810.174,703.934l-.305,3.824,1.377,10.584-31.78,1.585,33.663.59Z" transform="translate(-556.29 -502.385)" fill="#a7c9e8"/>
        <path id="Path_20000" data-name="Path 20000" d="M1267.718,917.7l3.055,160.13h10.768l22.568-160.49Z" transform="translate(-904.747 -654.686)" fill="#324d90"/>
      </g>
    </g>
    <g id="Group_14597" data-name="Group 14597" transform="translate(362.971 262.65)">
      <g id="Group_14596" data-name="Group 14596" clip-path="url(#clip-path-14)">
        <path id="Path_20001" data-name="Path 20001" d="M1319.87,1067.555c-15.646,20.785-20.359,89.738-21.594,119.653h9.446l11.684-73.361Z" transform="translate(-1289.527 -1024.545)" fill="#2a437d"/>
      </g>
    </g>
    <g id="Group_14599" data-name="Group 14599">
      <g id="Group_14598" data-name="Group 14598" clip-path="url(#clip-path-2)">
        <path id="Path_20003" data-name="Path 20003" d="M1243.469,1477.866l-1.188,4.163-12.837,5.5a4.159,4.159,0,0,0-2.52,3.823h26.509l-1.006-13.487Z" transform="translate(-875.633 -1054.726)" fill="#152e60"/>
        <path id="Path_20004" data-name="Path 20004" d="M1386.262,918.433l-1.319,159.393h-10.768l-22.568-160.49Z" transform="translate(-964.617 -654.687)" fill="#324d90"/>
      </g>
    </g>
    <g id="Group_14601" data-name="Group 14601" transform="translate(386.989 262.65)">
      <g id="Group_14600" data-name="Group 14600" clip-path="url(#clip-path-16)">
        <path id="Path_20005" data-name="Path 20005" d="M1372.73,1067.555c15.646,20.785,20.359,89.738,21.594,119.653h-9.447l-11.684-73.361Z" transform="translate(-1366.682 -1024.545)" fill="#2a437d"/>
      </g>
    </g>
    <g id="Group_14603" data-name="Group 14603">
      <g id="Group_14602" data-name="Group 14602" clip-path="url(#clip-path-2)">
        <path id="Path_20007" data-name="Path 20007" d="M1436.88,1477.866l1.188,4.163,12.837,5.5a4.159,4.159,0,0,1,2.521,3.823h-26.509l1.005-13.487Z" transform="translate(-1018.365 -1054.726)" fill="#152e60"/>
        <path id="Path_20008" data-name="Path 20008" d="M1267.718,948l60.531,12.268-59.994,11.658Z" transform="translate(-904.747 -676.572)" fill="#2a437d"/>
        <path id="Path_20009" data-name="Path 20009" d="M1353.286,586.8c.321,20.633,25.465,20.63,25.784,0-.321-20.632-25.465-20.63-25.784,0" transform="translate(-965.816 -407.745)" fill="#f4d2c6"/>
      </g>
    </g>
    <g id="Group_14605" data-name="Group 14605" transform="translate(387.47 163.581)">
      <g id="Group_14604" data-name="Group 14604" clip-path="url(#clip-path-18)">
        <path id="Path_20010" data-name="Path 20010" d="M1394.594,593.429s-10.237-1.05-17.089-6.877a7.542,7.542,0,0,1-1.936,5.814h0l-1.765-10.3,19.909,2.914Z" transform="translate(-1367.929 -578.989)" fill="#eda19d"/>
      </g>
    </g>
    <g id="Group_14607" data-name="Group 14607">
      <g id="Group_14606" data-name="Group 14606" clip-path="url(#clip-path-2)">
        <path id="Path_20012" data-name="Path 20012" d="M1350.165,621.76s1.262,24.216-1.292,31.391c0,0,8.026,2.432,15.931,0,0,0-4.986-20.674-4.013-25.417Z" transform="translate(-962.666 -443.739)" fill="#f4d2c6"/>
        <path id="Path_20013" data-name="Path 20013" d="M1368.373,568.407s-12.057-.014-17.143-4.309c2.1,10.1-2.331,15.592-7.058,22.72-1.131-4.7-11.787-30.68,6.362-28.71,10.02-8.717,21.288,2.757,24.672,10.094Z" transform="translate(-956.361 -396.075)" fill="#59445a"/>
        <path id="Path_20014" data-name="Path 20014" d="M1359.624,618.233c.02,4.488,6.843,4.487,6.863,0-.02-4.487-6.844-4.487-6.863,0" transform="translate(-970.339 -438.82)" fill="#f4d2c6"/>
        <path id="Path_20015" data-name="Path 20015" d="M1377.951,672.45s-2.738-.04-6.343-2.976c0,0,.782,6.537,7.072,6.913Z" transform="translate(-978.892 -477.791)" fill="#eda19d"/>
        <path id="Path_20016" data-name="Path 20016" d="M1376.161,579.794s2.006,5.914,10.606,8.9c0,0-10.023-1.839-13.734-6.355Z" transform="translate(-979.908 -413.788)" fill="#59445a"/>
        <path id="Path_20017" data-name="Path 20017" d="M1354.028,561.089s-5.754-3.774-10.951-.866c0,0,8.222,1.794,8.6,3.279Z" transform="translate(-958.53 -399.035)" fill="#59445a"/>
        <path id="Path_20018" data-name="Path 20018" d="M1373.969,554.3a4.441,4.441,0,0,1,3.741-5s-1.569,2.544-1.006,4.676Z" transform="translate(-980.556 -392.022)" fill="#59445a"/>
        <path id="Path_20019" data-name="Path 20019" d="M1307.937,727.2c-2.42-16.1-14.71-24.17-28.489-22.383-10.94,0-20.316,9.419-22.278,22.383l-10.987,51.64c25.4,10.7,43.73,11.881,70.735,7.685l-7.646-30.092Z" transform="translate(-889.377 -502.843)" fill="#4292f3"/>
        <path id="Path_20020" data-name="Path 20020" d="M1348.25,703.275c2.383,7.326,11.941,7.324,14.323,0,0,0-6.126-3.316-14.323,0" transform="translate(-962.221 -500.863)" fill="#f4d2c6"/>
        <path id="Path_20021" data-name="Path 20021" d="M1342.423,706.948l6.833,5.538c-6.81,4.954-7.154,1.107-9.171-4.873a9.9,9.9,0,0,1,2.337-.666" transform="translate(-956.395 -504.536)" fill="#fff"/>
        <path id="Path_20022" data-name="Path 20022" d="M1378.1,712.354l2.661,1.651a3.135,3.135,0,0,0,4.732-2.07l.825-4.274s-1.865-.618-2.44-.713Z" transform="translate(-983.522 -504.536)" fill="#fff"/>
        <path id="Path_20023" data-name="Path 20023" d="M1356.667,725.962l-6.2,48.763,6.512,10.7,7.176-10.147-5.777-49.449Z" transform="translate(-963.805 -518.012)" fill="#2a437d"/>
        <path id="Path_20024" data-name="Path 20024" d="M1261.507,720.594c2.835,10.209.68,21.423-1.79,31.5l-21.5,2.574c4.295-13.324,11.527-26.044,23.29-34.077" transform="translate(-883.693 -514.275)" fill="#2a437d"/>
        <path id="Path_20025" data-name="Path 20025" d="M1439.146,733.082A122,122,0,0,1,1454.86,762.6l-8.917,5.5s-8.626-14.271-6.8-35.012" transform="translate(-1026.911 -523.187)" fill="#2a437d"/>
        <path id="Path_20026" data-name="Path 20026" d="M1476.365,843.969l-3.928-7.8-8.917,5.5Z" transform="translate(-1044.488 -596.757)" fill="#eda19d"/>
        <path id="Path_20027" data-name="Path 20027" d="M1400.077,834.582l-36.806-8.434-1.071,9.374,33.011,14.967a8.078,8.078,0,0,0,7.66-.534c6.217-3.672,4.089-13.948-2.794-15.374" transform="translate(-972.177 -589.607)" fill="#f4d2c6"/>
        <path id="Path_20028" data-name="Path 20028" d="M1294.434,829.573c-5.077-2.915-11.264-7.3-17.439-6.322l-38.318,3.5A7.818,7.818,0,0,0,1233,829.9c-3.269,4.7-.538,9.316,3.567,12.235a7.582,7.582,0,0,0,7.119,1.6l39.568-13.473c3.294,1.592,7.844.027,11.181-.69" transform="translate(-878.936 -587.44)" fill="#f4d2c6"/>
        <path id="Path_20029" data-name="Path 20029" d="M1369.707,850.5l12.145-4.136s1.957,2.823,11.181-.689c0,0-9.226,6.279-19.3,6.582Z" transform="translate(-977.535 -603.546)" fill="#eda19d"/>
        <path id="Path_20030" data-name="Path 20030" d="M1799.758,1056.029H1584.829v6.386h35.183l-35.183,127.861,6.332.019,35.188-127.88h131.889l35.188,127.88,6.332-.019-35.183-127.861h35.183Z" transform="translate(-1131.064 -753.669)" fill="#bedbfa"/>
        <rect id="Rectangle_5744" data-name="Rectangle 5744" width="0.642" height="15.632" transform="translate(624.698 253.198)" fill="#152e60"/>
        <rect id="Rectangle_5745" data-name="Rectangle 5745" width="0.642" height="15.632" transform="translate(625.341 253.198)" fill="#324d90"/>
        <rect id="Rectangle_5746" data-name="Rectangle 5746" width="0.642" height="15.632" transform="translate(624.056 253.198)" fill="#324d90"/>
        <path id="Path_20031" data-name="Path 20031" d="M2179.588,938.919l.855,3.635,1.072-3.635Z" transform="translate(-1555.532 -670.089)" fill="#fff"/>
      </g>
    </g>
    <g id="Group_14609" data-name="Group 14609" transform="translate(624.056 268.83)">
      <g id="Group_14608" data-name="Group 14608" clip-path="url(#clip-path-20)">
        <rect id="Rectangle_5748" data-name="Rectangle 5748" width="1.142" height="1.603" transform="translate(0.26 2.173)" fill="#152e60"/>
      </g>
    </g>
    <g id="Group_14611" data-name="Group 14611">
      <g id="Group_14610" data-name="Group 14610" clip-path="url(#clip-path-2)">
        <rect id="Rectangle_5749" data-name="Rectangle 5749" width="1.927" height="2.082" transform="translate(624.056 251.116)" fill="#f9ce68"/>
        <rect id="Rectangle_5750" data-name="Rectangle 5750" width="1.927" height="0.464" transform="translate(624.056 252.317)" fill="#f08f3c"/>
        <rect id="Rectangle_5751" data-name="Rectangle 5751" width="1.927" height="0.464" transform="translate(624.056 251.531)" fill="#f08f3c"/>
        <path id="Path_20033" data-name="Path 20033" d="M2181.492,873.886v.219h-1.927a1,1,0,0,1,.964-1.182.964.964,0,0,1,.964.964" transform="translate(-1555.509 -622.988)" fill="#fff"/>
        <rect id="Rectangle_5752" data-name="Rectangle 5752" width="15.632" height="0.643" transform="matrix(0.247, -0.969, 0.969, 0.247, 626.327, 268.513)" fill="#f08f3c"/>
        <rect id="Rectangle_5753" data-name="Rectangle 5753" width="15.632" height="0.643" transform="matrix(0.247, -0.969, 0.969, 0.247, 626.949, 268.672)" fill="#f9ce68"/>
        <rect id="Rectangle_5754" data-name="Rectangle 5754" width="15.632" height="0.643" transform="matrix(0.247, -0.969, 0.969, 0.247, 625.704, 268.354)" fill="#f9ce68"/>
        <path id="Path_20034" data-name="Path 20034" d="M2185.169,937.257l-.071,3.734,1.938-3.257Z" transform="translate(-1559.465 -668.903)" fill="#fff"/>
      </g>
    </g>
    <g id="Group_14613" data-name="Group 14613" transform="translate(625.633 268.354)">
      <g id="Group_14612" data-name="Group 14612" clip-path="url(#clip-path-22)">
        <rect id="Rectangle_5756" data-name="Rectangle 5756" width="1.603" height="1.141" transform="translate(-0.611 3.723) rotate(-75.676)" fill="#152e60"/>
      </g>
    </g>
    <g id="Group_14615" data-name="Group 14615">
      <g id="Group_14614" data-name="Group 14614" clip-path="url(#clip-path-2)">
        <rect id="Rectangle_5757" data-name="Rectangle 5757" width="2.082" height="1.927" transform="matrix(0.247, -0.969, 0.969, 0.247, 629.573, 253.208)" fill="#324d90"/>
        <rect id="Rectangle_5758" data-name="Rectangle 5758" width="0.464" height="1.927" transform="translate(629.676 252.805) rotate(-75.676)" fill="#152e60"/>
        <rect id="Rectangle_5759" data-name="Rectangle 5759" width="0.464" height="1.927" transform="translate(629.87 252.043) rotate(-75.676)" fill="#152e60"/>
        <path id="Path_20036" data-name="Path 20036" d="M2202.577,875.237l-.054.212-1.867-.477a1,1,0,0,1,1.226-.907.964.964,0,0,1,.7,1.172" transform="translate(-1570.568 -623.781)" fill="#fff"/>
        <path id="Path_20037" data-name="Path 20037" d="M2162.326,929.93c-18.024.184-12.033,1.679-13.048-19.373H2164.8v16.9a2.47,2.47,0,0,1-2.469,2.47" transform="translate(-1533.772 -649.848)" fill="#4292f3"/>
        <rect id="Rectangle_5760" data-name="Rectangle 5760" width="5.127" height="15.657" transform="translate(616.884 245.052)" fill="#fff"/>
        <rect id="Rectangle_5761" data-name="Rectangle 5761" width="1.949" height="0.74" transform="translate(616.884 247.11)" fill="#dcecfd"/>
        <rect id="Rectangle_5762" data-name="Rectangle 5762" width="1.949" height="0.74" transform="translate(616.884 248.8)" fill="#dcecfd"/>
        <rect id="Rectangle_5763" data-name="Rectangle 5763" width="1.949" height="0.74" transform="translate(616.884 250.49)" fill="#dcecfd"/>
        <rect id="Rectangle_5764" data-name="Rectangle 5764" width="1.949" height="0.74" transform="translate(616.884 252.18)" fill="#dcecfd"/>
        <rect id="Rectangle_5765" data-name="Rectangle 5765" width="1.949" height="0.74" transform="translate(616.884 253.87)" fill="#dcecfd"/>
        <rect id="Rectangle_5766" data-name="Rectangle 5766" width="1.949" height="0.74" transform="translate(616.884 255.561)" fill="#dcecfd"/>
        <rect id="Rectangle_5767" data-name="Rectangle 5767" width="1.949" height="0.74" transform="translate(616.884 257.25)" fill="#dcecfd"/>
        <rect id="Rectangle_5768" data-name="Rectangle 5768" width="1.949" height="0.74" transform="translate(616.884 258.94)" fill="#dcecfd"/>
        <rect id="Rectangle_5769" data-name="Rectangle 5769" width="0.819" height="14.785" transform="translate(621.193 245.924)" fill="#bedbfa"/>
        <rect id="Rectangle_5770" data-name="Rectangle 5770" width="15.517" height="1.863" transform="translate(615.506 263.41)" fill="#324d90"/>
        <rect id="Rectangle_5771" data-name="Rectangle 5771" width="15.517" height="1.863" transform="translate(615.506 266.795)" fill="#324d90"/>
        <path id="Path_20038" data-name="Path 20038" d="M2139.2,987.906h-48.391a1.317,1.317,0,0,1-1.318-1.317v-8.348a1.317,1.317,0,0,1,1.318-1.317H2139.2a1.318,1.318,0,0,1,1.318,1.317v8.348a1.318,1.318,0,0,1-1.318,1.317" transform="translate(-1491.233 -697.213)" fill="#f9ce68"/>
        <rect id="Rectangle_5772" data-name="Rectangle 5772" width="3.007" height="10.982" transform="translate(602.521 279.711)" fill="#f08f3c"/>
        <rect id="Rectangle_5773" data-name="Rectangle 5773" width="3.007" height="10.982" transform="translate(607.091 279.711)" fill="#f08f3c"/>
        <rect id="Rectangle_5774" data-name="Rectangle 5774" width="3.007" height="10.982" transform="translate(637.186 279.711)" fill="#f08f3c"/>
        <rect id="Rectangle_5775" data-name="Rectangle 5775" width="3.007" height="10.982" transform="translate(641.757 279.711)" fill="#f08f3c"/>
        <path id="Path_20039" data-name="Path 20039" d="M2170.036,987.593c-.02,4.552-6.941,4.552-6.961,0,.02-4.552,6.941-4.551,6.961,0" transform="translate(-1543.747 -702.391)" fill="#f08f3c"/>
        <path id="Path_20040" data-name="Path 20040" d="M2139.549,983.945q.167,3.478,0,6.961-.169-3.478,0-6.961" transform="translate(-1526.897 -702.224)" fill="#152e60"/>
        <path id="Path_20041" data-name="Path 20041" d="M2145.678,983.945q.167,3.478,0,6.961-.168-3.478,0-6.961" transform="translate(-1531.271 -702.224)" fill="#152e60"/>
        <path id="Path_20042" data-name="Path 20042" d="M2151.808,983.945q.167,3.478,0,6.961-.168-3.478,0-6.961" transform="translate(-1535.646 -702.224)" fill="#152e60"/>
        <path id="Path_20043" data-name="Path 20043" d="M2198.235,983.945q.167,3.478,0,6.961-.169-3.478,0-6.961" transform="translate(-1568.781 -702.224)" fill="#152e60"/>
        <path id="Path_20044" data-name="Path 20044" d="M2204.365,983.945q.167,3.478,0,6.961-.169-3.478,0-6.961" transform="translate(-1573.155 -702.224)" fill="#152e60"/>
        <path id="Path_20045" data-name="Path 20045" d="M2210.495,983.945q.167,3.478,0,6.961-.168-3.478,0-6.961" transform="translate(-1577.53 -702.224)" fill="#152e60"/>
        <path id="Path_20046" data-name="Path 20046" d="M2126.656,1026.263h-48.391a1.317,1.317,0,0,1-1.318-1.317V1016.6a1.317,1.317,0,0,1,1.318-1.317h48.391a1.318,1.318,0,0,1,1.318,1.317v8.348a1.318,1.318,0,0,1-1.318,1.317" transform="translate(-1482.28 -724.588)" fill="#324d90"/>
        <rect id="Rectangle_5776" data-name="Rectangle 5776" width="3.007" height="10.982" transform="translate(598.929 290.693)" fill="#152e60"/>
        <rect id="Rectangle_5777" data-name="Rectangle 5777" width="3.007" height="10.982" transform="translate(603.499 290.693)" fill="#152e60"/>
        <rect id="Rectangle_5778" data-name="Rectangle 5778" width="3.007" height="10.982" transform="translate(633.594 290.693)" fill="#152e60"/>
        <rect id="Rectangle_5779" data-name="Rectangle 5779" width="3.007" height="10.982" transform="translate(638.164 290.693)" fill="#152e60"/>
        <path id="Path_20047" data-name="Path 20047" d="M2157.491,1025.95c-.02,4.552-6.941,4.551-6.961,0,.02-4.552,6.941-4.551,6.961,0" transform="translate(-1534.794 -729.765)" fill="#152e60"/>
        <path id="Path_20048" data-name="Path 20048" d="M2127,1022.3q.167,3.478,0,6.961-.168-3.478,0-6.961" transform="translate(-1517.944 -729.599)" fill="#152e60"/>
        <path id="Path_20049" data-name="Path 20049" d="M2133.133,1022.3q.168,3.478,0,6.961-.168-3.478,0-6.961" transform="translate(-1522.318 -729.599)" fill="#152e60"/>
        <path id="Path_20050" data-name="Path 20050" d="M2139.263,1022.3q.167,3.478,0,6.961-.168-3.478,0-6.961" transform="translate(-1526.693 -729.599)" fill="#152e60"/>
        <path id="Path_20051" data-name="Path 20051" d="M2185.689,1022.3q.168,3.478,0,6.961-.168-3.478,0-6.961" transform="translate(-1559.827 -729.599)" fill="#152e60"/>
        <path id="Path_20052" data-name="Path 20052" d="M2191.819,1022.3q.167,3.478,0,6.961-.168-3.478,0-6.961" transform="translate(-1564.202 -729.599)" fill="#152e60"/>
        <path id="Path_20053" data-name="Path 20053" d="M2197.949,1022.3q.167,3.478,0,6.961-.168-3.478,0-6.961" transform="translate(-1568.576 -729.599)" fill="#152e60"/>
        <path id="Path_20054" data-name="Path 20054" d="M2106.4,1038.1c.217,0,20.509-4.7,24.192-3.685a59.913,59.913,0,0,1,7.8,2.914,11.747,11.747,0,0,1,8.156-3.781c4.911,0,22.747,4.551,22.747,4.551Z" transform="translate(-1503.301 -737.627)" fill="#152e60"/>
        <path id="Path_20055" data-name="Path 20055" d="M2134.148,1029.843s-2.172-3.573-11.84-2.242-18.426,2.242-18.426,2.242l4.484-3.783c1.721-.363,28.034-10.712,28.234,3.012Z" transform="translate(-1501.502 -729.367)" fill="#bedbfa"/>
        <path id="Path_20056" data-name="Path 20056" d="M2218.153,1028.071l2.639.771s2.7-4.385,9.354-2.889,14.688,2.895,21.284,2.889c-1.051-2.549-31.07-16.785-33.277-.771" transform="translate(-1583.055 -728.366)" fill="#bedbfa"/>
        <rect id="Rectangle_5780" data-name="Rectangle 5780" width="69.153" height="1.053" transform="translate(600.522 300.476)" fill="#324d90"/>
        <path id="Path_20057" data-name="Path 20057" d="M2151.905,1027.282s1.7-3.781-5.269-6.91c-5.3-2.382-17.981.7-17.981.7l-3.328,1.944s21.667-8.708,26.577,4.264" transform="translate(-1516.808 -727.577)" fill="#fff"/>
        <path id="Path_20058" data-name="Path 20058" d="M2218.153,1023.3s-.071-9.748,8.418-9.4a94.613,94.613,0,0,1,15.358,1.771l4,3.5c-5.963-.419-22.475-6.4-27.78,4.128" transform="translate(-1583.055 -723.594)" fill="#fff"/>
        <path id="Path_20059" data-name="Path 20059" d="M2120.156,1031.175c3.185-.58,21.594-6.973,25.708.647-3.53-9.757-22.67-1.771-25.708-.647" transform="translate(-1513.117 -732.975)" fill="#dcecfd"/>
        <path id="Path_20060" data-name="Path 20060" d="M2238.83,1031.2c2.716-2.033,21.389,1.927,22.721,2.124,0,0-13.89-3.53-16.6-3.706s-6.122,1.582-6.122,1.582" transform="translate(-1597.812 -734.808)" fill="#dcecfd"/>
        <path id="Path_20061" data-name="Path 20061" d="M2218.153,992.572c1.74-12.875,3.885-22.131,20.445-21.725l3.666,7.482c-11.825,2.466-17.194,1.466-24.111,14.243" transform="translate(-1583.055 -692.866)" fill="#fff"/>
        <path id="Path_20062" data-name="Path 20062" d="M2226.741,1013.995s-4.618,5.025-6.228,8.381c0,0,2.377-5.555,6.228-8.381" transform="translate(-1584.74 -723.67)" fill="#bedbfa"/>
        <path id="Path_20063" data-name="Path 20063" d="M2228.793,1000.524c3.258-7.217,11.251-7.567,18.049-9.145-6.725,1.879-14.539,2.126-18.049,9.145" transform="translate(-1590.649 -707.529)" fill="#bedbfa"/>
        <path id="Path_20064" data-name="Path 20064" d="M2227.678,993.832c4.272-7.546,7.44-7.519,15.268-9.59-7.847,2.445-10.621,2.148-15.268,9.59" transform="translate(-1589.853 -702.436)" fill="#bedbfa"/>
        <path id="Path_20065" data-name="Path 20065" d="M2228.793,990.618c1.467-5.867,4.532-7.309,9.884-9.124-5.376,2.242-7.974,3.208-9.884,9.124" transform="translate(-1590.649 -700.474)" fill="#bedbfa"/>
        <path id="Path_20066" data-name="Path 20066" d="M1887.9,559.551s13.283-6.282,17.813,10.136,6.657,38.3,6.657,38.3l-35.894-8.252c-4.925-10.25-1.484-34.455,11.425-40.181" transform="translate(-1337.671 -398.499)" fill="#59445a"/>
        <path id="Path_20067" data-name="Path 20067" d="M1883.242,559.689s-12.58-6.339-19.259,2.674-2.439,14.507-2.439,14.507l.954-5.707s-2.168,8.876,4.96,14.616Z" transform="translate(-1327.603 -397.895)" fill="#59445a"/>
        <path id="Path_20068" data-name="Path 20068" d="M1846.942,1269.385c-1.463-13.416-8.323-69.98-5.218-84.219l24.094,3.374c-5.394,13.753-8.848,65.569-10.193,80.845Z" transform="translate(-1313.835 -845.832)" fill="#f4d2c6"/>
      </g>
    </g>
    <g id="Group_14617" data-name="Group 14617" transform="translate(527.091 339.335)">
      <g id="Group_14616" data-name="Group 14616" clip-path="url(#clip-path-24)">
        <path id="Path_20069" data-name="Path 20069" d="M1833.776,1200.713s13.806,6.72,26.25,6.458l3.262-11.8-26.871-4.194Z" transform="translate(-1835.823 -1189.454)" fill="#eda19d"/>
      </g>
    </g>
    <g id="Group_14619" data-name="Group 14619">
      <g id="Group_14618" data-name="Group 14618" clip-path="url(#clip-path-2)">
        <path id="Path_20071" data-name="Path 20071" d="M1974.726,1257.541c-6.006-12.086-31.981-62.8-33.984-77.234l23.776-5.155c-.331,14.784,14.648,65.769,18.648,80.62Z" transform="translate(-1385.072 -838.685)" fill="#f4d2c6"/>
      </g>
    </g>
    <g id="Group_14621" data-name="Group 14621" transform="translate(555.67 336.467)">
      <g id="Group_14620" data-name="Group 14620" clip-path="url(#clip-path-26)">
        <path id="Path_20072" data-name="Path 20072" d="M1929.292,1196.153s22.94-.946,32.636-4.257l-6.6-16.744h-27.464Z" transform="translate(-1931.551 -1175.152)" fill="#eda19d"/>
      </g>
    </g>
    <g id="Group_14623" data-name="Group 14623">
      <g id="Group_14622" data-name="Group 14622" clip-path="url(#clip-path-2)">
        <path id="Path_20074" data-name="Path 20074" d="M1821.959,1479.31l-1.152,4.035-12.443,5.333a4.031,4.031,0,0,0-2.443,3.705h25.7l-.975-13.073Z" transform="translate(-1288.853 -1055.757)" fill="#152e60"/>
        <path id="Path_20075" data-name="Path 20075" d="M2027.013,1455.951l-.189,4.193-10.874,8.063a4.031,4.031,0,0,0-1.521,4.169l25-5.936-3.968-12.5Z" transform="translate(-1437.583 -1037.654)" fill="#152e60"/>
        <path id="Path_20076" data-name="Path 20076" d="M1824.765,947.383l-6.936,74.325s38.408,8.578,74.191-1.4l-8.855-40.133.494-35.019Z" transform="translate(-1297.351 -674.543)" fill="#324d90"/>
      </g>
    </g>
    <g id="Group_14625" data-name="Group 14625" transform="translate(520.477 270.616)">
      <g id="Group_14624" data-name="Group 14624" clip-path="url(#clip-path-28)">
        <path id="Path_20077" data-name="Path 20077" d="M1875.467,946.368s27.214,18.827,57.688,16.629l-4.744-21.768Z" transform="translate(-1858.964 -942.354)" fill="#2a437d"/>
      </g>
    </g>
    <g id="Group_14627" data-name="Group 14627">
      <g id="Group_14626" data-name="Group 14626" clip-path="url(#clip-path-2)">
        <path id="Path_20079" data-name="Path 20079" d="M1835.205,730.58l-9.175,15.865,8.57,8.838Z" transform="translate(-1303.204 -521.401)" fill="#3c7ed7"/>
        <path id="Path_20080" data-name="Path 20080" d="M1898.87,764.553l-13.334-56.612c-3.6-15.364-16.113-22.2-29.282-19.389-10.659.472-19.358,12.061-19.768,23.393-.079,1.137-4.017,58-4.017,58s46.538,8.407,66.4-5.4" transform="translate(-1307.8 -490.967)" fill="#4292f3"/>
      </g>
    </g>
    <g id="Group_14629" data-name="Group 14629" transform="translate(524.669 196.969)">
      <g id="Group_14628" data-name="Group 14628" clip-path="url(#clip-path-30)">
        <path id="Path_20081" data-name="Path 20081" d="M1998.246,889.355l8.781,24.844,13.753-4.693-6.637-21.085Z" transform="translate(-1950.781 -831.019)" fill="#3c7ed7"/>
      </g>
    </g>
    <g id="Group_14631" data-name="Group 14631">
      <g id="Group_14630" data-name="Group 14630" clip-path="url(#clip-path-2)">
        <path id="Path_20083" data-name="Path 20083" d="M1953.376,711.379l24,27.662-18.9,17.08-21.046-24.414Z" transform="translate(-1382.707 -507.698)" fill="#4292f3"/>
        <path id="Path_20084" data-name="Path 20084" d="M2045.837,828.581l-8-11.115-11.486,10.379,8.135,6.7Z" transform="translate(-1446.169 -583.411)" fill="#eda19d"/>
        <path id="Path_20085" data-name="Path 20085" d="M1878.532,575.142s-.44-18.826,19.009-12.042c0,0-11.13,12.678-19.009,12.042" transform="translate(-1340.673 -400.822)" fill="#59445a"/>
        <path id="Path_20086" data-name="Path 20086" d="M1900.235,588.323c-3.069,18.945-26.209,15.563-23.729-3.467,3.069-18.945,26.209-15.562,23.729,3.467" transform="translate(-1339.096 -408.393)" fill="#f4d2c6"/>
      </g>
    </g>
    <g id="Group_14633" data-name="Group 14633" transform="translate(537.224 163.841)">
      <g id="Group_14632" data-name="Group 14632" clip-path="url(#clip-path-32)">
        <path id="Path_20087" data-name="Path 20087" d="M1877.287,573.586s-1.114,13.169,20.582,9.868h0c-2.291-5.545-12.154-28.588-20.582-9.868" transform="translate(-1877.003 -568.058)" fill="#eda19d"/>
      </g>
    </g>
    <g id="Group_14635" data-name="Group 14635">
      <g id="Group_14634" data-name="Group 14634" clip-path="url(#clip-path-2)">
        <path id="Path_20089" data-name="Path 20089" d="M1921.038,625.092s-2.793,13.985-3.24,23.206a6.23,6.23,0,1,1-12.1-2.423c2.132-5.768,4.919-13.919,4.759-16.714Z" transform="translate(-1359.786 -446.117)" fill="#f4d2c6"/>
        <path id="Path_20090" data-name="Path 20090" d="M1912.273,668.44s2.525.332,6.238-1.886c0,0-1.6,5.911-7.438,5.411Z" transform="translate(-1363.898 -475.707)" fill="#eda19d"/>
        <path id="Path_20091" data-name="Path 20091" d="M1907.283,561.954c-4.273,7.814-2.383,15.206,6.8,17.949l-2.739-4.021s5.822,6.29,8.828,7.977c8.962-11.255,7.073-21.662-12.893-21.9" transform="translate(-1359.64 -401.056)" fill="#59445a"/>
        <path id="Path_20092" data-name="Path 20092" d="M1951.965,625.408c-.69,4.574-5.923,3.809-5.276-.771.69-4.573,5.923-3.809,5.276.771" transform="translate(-1389.277 -443.601)" fill="#f4d2c6"/>
        <path id="Path_20093" data-name="Path 20093" d="M1894.719,570.569s-4.935,6.7-5.7,11.976c0,0-2.165-7.954,2.752-12.949Z" transform="translate(-1347.819 -406.51)" fill="#59445a"/>
        <path id="Path_20094" data-name="Path 20094" d="M1985.643,825.069l-9.237-12.441,4.023,13.138Z" transform="translate(-1410.525 -579.957)" fill="#3c7ed7"/>
        <path id="Path_20095" data-name="Path 20095" d="M1932.071,688.761s.175,7.8-7.323,10.8c0,0,.554,4.232,7.035,2.192s3.807-12.167,3.807-12.167a15.909,15.909,0,0,0-3.519-.825" transform="translate(-1373.658 -491.556)" fill="#fff"/>
        <path id="Path_20096" data-name="Path 20096" d="M1898.608,700.652s-4.542,3.3-6.674,1.3c-2.484-2.58-1.409-10.922,4.015-11.016,0,0-2.687,6.341,2.659,9.712" transform="translate(-1349.333 -493.111)" fill="#fff"/>
        <path id="Path_20097" data-name="Path 20097" d="M1655.16,790.566l-4.253,10.259-45.709,1.8c-1.493-1.524-4.844-4.571-8.2-5.07-4.5-.671,2.3,4.118,2.3,4.884s-14.174,1.341-14.462,3.256,5.938,8.8,7.949,8.854,13.712-3.679,13.712-3.679l40.483,7.507a12.336,12.336,0,0,0,10.708-3.149l1.426-20.581Z" transform="translate(-1131.064 -564.212)" fill="#f4d2c6"/>
      </g>
    </g>
    <g id="Group_14637" data-name="Group 14637" transform="translate(453.766 226.353)">
      <g id="Group_14636" data-name="Group 14636" clip-path="url(#clip-path-34)">
        <path id="Path_20098" data-name="Path 20098" d="M1811.5,781.172s7.537,16.917,6,24.4l9.259-3.4-.389-26.66-10.714-5.617Z" transform="translate(-1746.598 -775.813)" fill="#eda19d"/>
      </g>
    </g>
    <g id="Group_14639" data-name="Group 14639">
      <g id="Group_14638" data-name="Group 14638" clip-path="url(#clip-path-2)">
        <path id="Path_20100" data-name="Path 20100" d="M1866.875,866.509l1.415,4.693-3.988-2.85-15.823-22.09a1.582,1.582,0,0,1,2.572-1.842Z" transform="translate(-1319.015 -602.175)" fill="#324d90"/>
        <path id="Path_20101" data-name="Path 20101" d="M1876.009,862.719l44.6-.867a8.54,8.54,0,0,0,8.1-8.182,6.249,6.249,0,0,0-7.175-6.434l-44.407,5.936c-4.359-2.846-13.909-1.272-16.533,2.869-.52,5.482,5.964,10.051,8.645,9.844s6.774-3.167,6.774-3.167" transform="translate(-1327.848 -604.606)" fill="#f4d2c6"/>
        <path id="Path_20102" data-name="Path 20102" d="M234.417,1168.863l-7.088-2.854,6.708,1.57s-2.9-10.276-6.184-10.846-8.8,6.327-8.706,9.419a5.969,5.969,0,0,1-1.38,4.472,4.038,4.038,0,0,1-.951-4.519c5.336-14.57-17.4-15.6-16.317,9.657l6.041-2c-7.58,6.19-5.358,7.717-.886,18.435a157.427,157.427,0,0,0-9.381,33.433c-1.323-4.8-3.237-11.184-5.76-18.247a50.316,50.316,0,0,0,3.485-5.474c.217-1.193-9-9.219-9-9.219l10.738,7.267c1.284-5.286,7.934-24.884-5.965-26.681,0,0,4.881.325,7.592,1.952,0,0-.976-10.087-8.785-9.219s-6.507,5.64-6.724,8.785c-.181,2.62-2.387,5.008-3.121,5.735-2.084-3.271-2.789-4.77-.241-8.88,5.2-15.957-28.761-6.272-18.113,20.282l6.507-6.074c-7.891,12.4-3.457,15.754,1.519,26.573l5.1-4.772s-3.579,6.291-3.471,7.05,7.7,10.955,7.7,10.955,6.522-9.166,11.308-16.122a156.5,156.5,0,0,1,6.034,24.989H179.233l5.147,24.759a2.793,2.793,0,0,0,2.734,2.224h19.459a2.793,2.793,0,0,0,2.734-2.224l5.147-24.759H198.527c.75-12.528,4.71-26.7,8.844-38.507.856,1.877,1.453,3.142,1.453,3.142l3.377-4.044s-1.9,5.233-1.712,5.994,6.422,7.9,6.422,7.9,7.469-10.418,7.516-11.227-4.472-6.327-4.472-6.327l6.375,4.376s8.182-10.8,8.135-12.7-7.469-7.659-7.469-7.659l8.182,4.377s.761-7.516-.761-10.989m-57.649,8.379c.307.691.793,1.8,1.412,3.251a4.933,4.933,0,0,1-1.412-3.251" transform="translate(-112.974 -824.887)" fill="#bedbfa"/>
        <path id="Path_20103" data-name="Path 20103" d="M63.192,1522.812c214.744-1.112,439.079-1.115,653.86-.228l43.59.228c-229.626,1.169-467.831,1.159-697.45,0" transform="translate(-45.099 -1086.185)" fill="#152e60"/>
        <path id="Path_20104" data-name="Path 20104" d="M1632.35,649.094h-53.332a2.631,2.631,0,0,1-2.631-2.632V628.82a2.631,2.631,0,0,1,2.631-2.632h53.332a2.632,2.632,0,0,1,2.632,2.632v17.643a2.632,2.632,0,0,1-2.632,2.632" transform="translate(-1125.039 -446.899)" fill="#fff"/>
        <rect id="Rectangle_5787" data-name="Rectangle 5787" width="49.618" height="2.873" transform="translate(455.837 183.094)" fill="#d9e9fd"/>
        <rect id="Rectangle_5788" data-name="Rectangle 5788" width="49.618" height="2.873" transform="translate(455.837 189.306)" fill="#d9e9fd"/>
        <rect id="Rectangle_5789" data-name="Rectangle 5789" width="32.938" height="2.873" transform="translate(455.837 195.517)" fill="#d9e9fd"/>
        <path id="Path_20105" data-name="Path 20105" d="M1545.128,642.009c-.211,12.376-18.62,12.374-18.83,0,.211-12.376,18.62-12.374,18.83,0" transform="translate(-1089.291 -451.566)" fill="#4292f3"/>
        <path id="Path_20106" data-name="Path 20106" d="M1540.334,653.651l-3.407-3.407-1.864,1.864,5.271,5.271,8.54-8.54-1.864-1.864Z" transform="translate(-1095.547 -461.735)" fill="#fff"/>
      </g>
    </g>
  </g>
</svg>
