<svg id="Group_14541" data-name="Group 14541" xmlns="http://www.w3.org/2000/svg" width="35" height="35" viewBox="0 0 35 35">
  <rect id="Rectangle_4681" data-name="Rectangle 4681" width="35" height="35" rx="6" fill="#5d9a47" opacity="0.1"/>
  <g id="Group_14542" data-name="Group 14542" transform="translate(-1394.462 -221.183)">
    <path id="Icon_open-puzzle-piece" data-name="Icon open-puzzle-piece" d="M5.318,0A1.8,1.8,0,0,0,4.041.5a1.8,1.8,0,0,0-.5,1.276,3.31,3.31,0,0,0,.5,1.276,1.277,1.277,0,0,1,.053.5H0V14.18H4.095a1.75,1.75,0,0,0-.053-.5,3.31,3.31,0,0,1-.5-1.276,1.8,1.8,0,0,1,.5-1.276,1.8,1.8,0,0,1,1.276-.5,1.8,1.8,0,0,1,1.276.5,1.8,1.8,0,0,1,.5,1.276,3.31,3.31,0,0,1-.5,1.276,1.277,1.277,0,0,0-.053.5h4.095V10.086a1.75,1.75,0,0,1,.5.053,3.31,3.31,0,0,0,1.276.5,1.773,1.773,0,1,0,0-3.545,3.31,3.31,0,0,0-1.276.5,1.277,1.277,0,0,1-.5.053V3.545H6.541a1.75,1.75,0,0,1,.053-.5,3.31,3.31,0,0,0,.5-1.276A1.8,1.8,0,0,0,6.594.5,1.8,1.8,0,0,0,5.318,0Z" transform="translate(1399.782 229.82)" fill="none" stroke="#469c39" stroke-width="1.5"/>
    <path id="Icon_open-puzzle-piece-2" data-name="Icon open-puzzle-piece" d="M5.317,0A1.829,1.829,0,0,0,4.041.48a1.7,1.7,0,0,0-.5,1.233,3.136,3.136,0,0,0,.5,1.233,1.2,1.2,0,0,1,.053.48H0V13.7H4.094a1.638,1.638,0,0,0-.053-.48,3.137,3.137,0,0,1-.5-1.233,1.7,1.7,0,0,1,.5-1.233,1.829,1.829,0,0,1,1.276-.48,1.829,1.829,0,0,1,1.276.48,1.7,1.7,0,0,1,.5,1.233,3.137,3.137,0,0,1-.5,1.233,1.2,1.2,0,0,0-.053.48h4.094V9.747a1.808,1.808,0,0,1,.5.051,3.378,3.378,0,0,0,1.276.48,1.829,1.829,0,0,0,1.276-.48,1.781,1.781,0,0,0,0-2.467,1.829,1.829,0,0,0-1.276-.48,3.378,3.378,0,0,0-1.276.48,1.318,1.318,0,0,1-.5.051V3.426H6.54a1.638,1.638,0,0,1,.053-.48,3.137,3.137,0,0,0,.5-1.233A1.7,1.7,0,0,0,6.593.48,1.829,1.829,0,0,0,5.317,0Z" transform="translate(1424.143 233.369) rotate(90)" fill="none" stroke="#469c39" stroke-width="1.5"/>
  </g>
</svg>
