<svg id="ATS_Logo" data-name="ATS Logo" xmlns="http://www.w3.org/2000/svg" xmlns:xlink="http://www.w3.org/1999/xlink" width="130" height="32" viewBox="0 0 130 32">
  <defs>
    <clipPath id="clip-path">
      <rect id="Rectangle_4677" data-name="Rectangle 4677" width="130" height="32" fill="none"/>
    </clipPath>
    <clipPath id="clip-path-2">
      <path id="Path_19757" data-name="Path 19757" d="M0,73.43,5.8,83.2h11.6l-5.8-9.77Z" transform="translate(0 -73.43)" fill="none"/>
    </clipPath>
    <linearGradient id="linear-gradient" x1="0.262" y1="0.257" x2="0.414" y2="0.754" gradientUnits="objectBoundingBox">
      <stop offset="0" stop-color="#2c7fff"/>
      <stop offset="1" stop-color="#0741d2"/>
    </linearGradient>
    <clipPath id="clip-path-3">
      <rect id="Rectangle_4677-2" data-name="Rectangle 4677" width="130" height="26" fill="none"/>
    </clipPath>
  </defs>
  <g id="Group_13121" data-name="Group 13121">
    <g id="Group_13120" data-name="Group 13120" clip-path="url(#clip-path)">
      <path id="Path_19746" data-name="Path 19746" d="M299.587,88.538a4.945,4.945,0,0,1-1.487-.206,4.085,4.085,0,0,1-1.13-.54,3.508,3.508,0,0,1-.809-.772,3.666,3.666,0,0,1-.5-.884l2.035-.857a2.167,2.167,0,0,0,.792.968,2,2,0,0,0,1.105.318,1.888,1.888,0,0,0,.991-.224.632.632,0,0,0,.365-.531.654.654,0,0,0-.3-.557,3.177,3.177,0,0,0-1.052-.385l-1.2-.257a4.358,4.358,0,0,1-.827-.274,3.235,3.235,0,0,1-.774-.481,2.4,2.4,0,0,1-.574-.7,1.947,1.947,0,0,1-.226-.958,2.2,2.2,0,0,1,.27-1.1,2.491,2.491,0,0,1,.739-.814,3.549,3.549,0,0,1,1.105-.515,4.984,4.984,0,0,1,1.365-.181,4.868,4.868,0,0,1,2.175.472,2.924,2.924,0,0,1,1.409,1.5l-1.966.789a1.5,1.5,0,0,0-.713-.72,2.168,2.168,0,0,0-.94-.224,1.777,1.777,0,0,0-.853.2.579.579,0,0,0-.365.505.517.517,0,0,0,.3.463,3.476,3.476,0,0,0,.827.309l1.3.308a3.782,3.782,0,0,1,1.94.987,2.263,2.263,0,0,1,.635,1.6,2.215,2.215,0,0,1-.261,1.046,2.8,2.8,0,0,1-.739.884,3.653,3.653,0,0,1-1.146.609,4.717,4.717,0,0,1-1.487.222" transform="translate(-255.749 -68.999)" fill="#0d264c"/>
      <path id="Path_19747" data-name="Path 19747" d="M365.754,87.256a2.564,2.564,0,0,1-.975.909,3.242,3.242,0,0,1-1.635.378,3.744,3.744,0,0,1-1.557-.333,4.176,4.176,0,0,1-1.3-.927,4.389,4.389,0,0,1-.9-1.414,5.064,5.064,0,0,1,0-3.6,4.377,4.377,0,0,1,.9-1.416,4.144,4.144,0,0,1,1.3-.926,3.743,3.743,0,0,1,1.557-.335,3.257,3.257,0,0,1,1.635.378,3.151,3.151,0,0,1,1.114,1.072V79.592h2.142V91.97h-2.281Zm-2.14-.789a2.286,2.286,0,0,0,.861-.163,2.145,2.145,0,0,0,.722-.47,2.349,2.349,0,0,0,.5-.755,2.767,2.767,0,0,0,0-2.023,2.335,2.335,0,0,0-.5-.754,2.169,2.169,0,0,0-.722-.472,2.317,2.317,0,0,0-.861-.163,2.206,2.206,0,0,0-.861.172,2.265,2.265,0,0,0-.722.479,2.368,2.368,0,0,0-.5.754,2.679,2.679,0,0,0,0,1.989,2.338,2.338,0,0,0,.5.753,2.268,2.268,0,0,0,.722.481,2.2,2.2,0,0,0,.861.17" transform="translate(-310.594 -69.002)" fill="#0d264c"/>
      <path id="Path_19748" data-name="Path 19748" d="M444.931,86.95a3.377,3.377,0,0,1-1.218,1.222,2.982,2.982,0,0,1-1.549.368,2.919,2.919,0,0,1-2.41-.977,4.015,4.015,0,0,1-.792-2.606V79.591h2.279v5.093a1.912,1.912,0,0,0,.409,1.346,1.549,1.549,0,0,0,1.191.437,1.685,1.685,0,0,0,.826-.2,1.925,1.925,0,0,0,.609-.531,2.409,2.409,0,0,0,.381-.79,3.479,3.479,0,0,0,.131-.968V79.591h2.279v8.95H444.93Z" transform="translate(-379.712 -69.002)" fill="#0d264c"/>
      <path id="Path_19749" data-name="Path 19749" d="M514.945,87.173a3.793,3.793,0,0,1-1.042.982,3.008,3.008,0,0,1-1.515.381,3.574,3.574,0,0,1-1.246-.215,3.227,3.227,0,0,1-1.018-.589,2.635,2.635,0,0,1-.678-.909,2.77,2.77,0,0,1-.244-1.166,2.591,2.591,0,0,1,.261-1.175,2.677,2.677,0,0,1,.73-.9,3.31,3.31,0,0,1,1.1-.574,4.639,4.639,0,0,1,1.384-.2,6.074,6.074,0,0,1,1.375.129,6.738,6.738,0,0,1,.886.265v-.257a1.36,1.36,0,0,0-.539-1.1,2.055,2.055,0,0,0-1.339-.439,2.516,2.516,0,0,0-2,.977l-1.653-1.114a4.511,4.511,0,0,1,3.706-1.68,4.446,4.446,0,0,1,3.026.918,3.423,3.423,0,0,1,1.046,2.717l0,5.315h-2.242Zm0-2.326a4.872,4.872,0,0,0-.826-.3,3.73,3.73,0,0,0-.93-.111,1.988,1.988,0,0,0-1.262.352,1.065,1.065,0,0,0-.443.866.97.97,0,0,0,.426.824,1.633,1.633,0,0,0,.982.307,2.113,2.113,0,0,0,1.487-.589,1.89,1.89,0,0,0,.565-1.347" transform="translate(-440.473 -68.995)" fill="#0d264c"/>
      <path id="Path_19750" data-name="Path 19750" d="M581.772,79.591h2.139v1.674a4.182,4.182,0,0,1,.556-.8,3.046,3.046,0,0,1,.584-.449,3.312,3.312,0,0,1,.7-.307,2.441,2.441,0,0,1,.74-.119,2.731,2.731,0,0,1,.774.1,1.989,1.989,0,0,1,.548.248l-.608,2.007a2.168,2.168,0,0,0-.462-.163,2.644,2.644,0,0,0-.616-.061,1.973,1.973,0,0,0-.853.181,1.877,1.877,0,0,0-.653.508,2.437,2.437,0,0,0-.417.767,2.975,2.975,0,0,0-.149.956v4.411h-2.278Z" transform="translate(-503.246 -69.002)" fill="#0d264c"/>
      <path id="Path_19751" data-name="Path 19751" d="M635.309,86.242a4.735,4.735,0,0,1-1.594,1.662,4.475,4.475,0,0,1-2.445.634,4.774,4.774,0,0,1-1.8-.333,4.266,4.266,0,0,1-2.383-2.35,4.624,4.624,0,0,1-.338-1.792,4.527,4.527,0,0,1,.33-1.722,4.372,4.372,0,0,1,4.105-2.753,4.719,4.719,0,0,1,1.827.335,3.725,3.725,0,0,1,1.339.925,3.961,3.961,0,0,1,.819,1.4,5.326,5.326,0,0,1,.279,1.748v.584h-6.454a2.323,2.323,0,0,0,.287.884,2.122,2.122,0,0,0,.539.618,2.082,2.082,0,0,0,.7.359,2.772,2.772,0,0,0,.783.112,2.243,2.243,0,0,0,1.3-.352,2.6,2.6,0,0,0,.809-.884Zm-2.071-3.257a1.4,1.4,0,0,0-.149-.5,1.762,1.762,0,0,0-.382-.515,2.035,2.035,0,0,0-.627-.393,2.337,2.337,0,0,0-.9-.154,2.113,2.113,0,0,0-1.288.411,2.166,2.166,0,0,0-.781,1.149Z" transform="translate(-542.153 -69.001)" fill="#0d264c"/>
      <path id="Path_19752" data-name="Path 19752" d="M702.01,52.53h2.279v4.886a2.576,2.576,0,0,1,.973-.909,3.266,3.266,0,0,1,1.635-.378,3.743,3.743,0,0,1,1.557.335,4.151,4.151,0,0,1,1.3.926,4.362,4.362,0,0,1,.9,1.416,5.064,5.064,0,0,1,0,3.6,4.377,4.377,0,0,1-.9,1.414,4.184,4.184,0,0,1-1.3.927,3.744,3.744,0,0,1-1.557.333,3.251,3.251,0,0,1-1.635-.378,2.96,2.96,0,0,1-1.112-1.116V65.08h-2.142Zm4.418,10.475a2.212,2.212,0,0,0,.862-.17,2.274,2.274,0,0,0,.722-.481,2.355,2.355,0,0,0,.5-.754,2.678,2.678,0,0,0,0-1.989,2.388,2.388,0,0,0-.505-.754,2.27,2.27,0,0,0-.721-.479,2.216,2.216,0,0,0-.862-.172,2.31,2.31,0,0,0-.86.163,2.168,2.168,0,0,0-.723.472,2.367,2.367,0,0,0-.505.754,2.788,2.788,0,0,0,0,2.023,2.379,2.379,0,0,0,.505.755,2.141,2.141,0,0,0,.723.47,2.279,2.279,0,0,0,.86.163" transform="translate(-607.254 -45.541)" fill="#0d264c"/>
      <path id="Path_19753" data-name="Path 19753" d="M780.262,79.591a4.816,4.816,0,0,1,1.818.335,4.178,4.178,0,0,1,2.366,2.341,4.957,4.957,0,0,1,0,3.6,4.235,4.235,0,0,1-.939,1.414,4.356,4.356,0,0,1-1.427.927,5.122,5.122,0,0,1-3.637,0,4.189,4.189,0,0,1-2.366-2.341,4.936,4.936,0,0,1,0-3.6,4.178,4.178,0,0,1,2.366-2.341,4.81,4.81,0,0,1,1.818-.335m0,6.875a2.237,2.237,0,0,0,.843-.163,2.171,2.171,0,0,0,.723-.47,2.255,2.255,0,0,0,.5-.755,2.9,2.9,0,0,0,0-2.023,2.246,2.246,0,0,0-.5-.754,2.195,2.195,0,0,0-.723-.472,2.289,2.289,0,0,0-1.694,0,2.191,2.191,0,0,0-.713.472,2.248,2.248,0,0,0-.5.754,2.9,2.9,0,0,0,0,2.023,2.256,2.256,0,0,0,.5.755,2.164,2.164,0,0,0,.713.47,2.218,2.218,0,0,0,.853.163" transform="translate(-671.031 -69.002)" fill="#0d264c"/>
      <path id="Path_19754" data-name="Path 19754" d="M855.716,87.192a4.1,4.1,0,0,1-1.106,1,2.765,2.765,0,0,1-1.452.344,3.562,3.562,0,0,1-1.246-.215,3.206,3.206,0,0,1-1.018-.589,2.637,2.637,0,0,1-.68-.909,2.771,2.771,0,0,1-.243-1.166,2.591,2.591,0,0,1,.261-1.175,2.661,2.661,0,0,1,.73-.9,3.294,3.294,0,0,1,1.1-.574,4.628,4.628,0,0,1,1.382-.2,6.064,6.064,0,0,1,1.375.129,6.771,6.771,0,0,1,.888.265v-.257a1.365,1.365,0,0,0-.539-1.1,2.056,2.056,0,0,0-1.341-.439,2.514,2.514,0,0,0-2,.977l-1.648-1.117a4.506,4.506,0,0,1,3.7-1.68,4.453,4.453,0,0,1,3.027.918,3.423,3.423,0,0,1,1.046,2.717V88.53h-2.242Zm0-2.348a4.869,4.869,0,0,0-.827-.3,3.733,3.733,0,0,0-.931-.111,1.991,1.991,0,0,0-1.262.352,1.069,1.069,0,0,0-.443.866.97.97,0,0,0,.427.824,1.634,1.634,0,0,0,.984.307,2.122,2.122,0,0,0,1.487-.591,1.909,1.909,0,0,0,.417-.618,1.857,1.857,0,0,0,.15-.729" transform="translate(-735.247 -68.992)" fill="#0d264c"/>
      <path id="Path_19755" data-name="Path 19755" d="M918.618,66.816h-1.495V64.9h1.495V62.324H920.9V64.9h2.088v1.92H920.9v3.358a2.344,2.344,0,0,0,.062.555.9.9,0,0,0,.235.434.866.866,0,0,0,.7.282,1.515,1.515,0,0,0,.471-.059,1.479,1.479,0,0,0,.33-.163l.642,1.971a3.713,3.713,0,0,1-.86.283,5.125,5.125,0,0,1-1.018.094,3.147,3.147,0,0,1-1.157-.2,2.458,2.458,0,0,1-.862-.551,2.966,2.966,0,0,1-.817-2.241Z" transform="translate(-793.331 -54.033)" fill="#0d264c"/>
      <text id="HR_ATS" data-name="HR ATS" transform="translate(0.001 31)" fill="#2c7fff" font-size="7" font-family="Inter" font-weight="700" letter-spacing="0.375em"><tspan x="0" y="0">EMP MANAGER</tspan></text>
      <rect id="Rectangle_4676" data-name="Rectangle 4676" width="44.54" height="3.124" transform="translate(85.46 26.938)" fill="#2c7fff"/>
    </g>
  </g>
  <g id="Group_13123" data-name="Group 13123" transform="translate(0 9.769)">
    <g id="Group_13122" data-name="Group 13122" clip-path="url(#clip-path-2)">
      <path id="Path_19756" data-name="Path 19756" d="M-19.89,51.341l3.7,12.677L2.875,59.971l-3.7-12.677Z" transform="translate(17.205 -50.771)" fill="url(#linear-gradient)"/>
    </g>
  </g>
  <g id="Group_13125" data-name="Group 13125">
    <g id="Group_13124" data-name="Group 13124" clip-path="url(#clip-path-3)">
      <path id="Path_19758" data-name="Path 19758" d="M148.386,73.43l-5.8,9.77h9.749l5.793-9.77Z" transform="translate(-123.342 -63.661)" fill="#2c7fff"/>
      <path id="Path_19759" data-name="Path 19759" d="M42.955,19.538h11.6l5.8-9.77L54.551,0Z" transform="translate(-37.157)" fill="#2c7fff"/>
    </g>
  </g>
</svg>
