<svg xmlns="http://www.w3.org/2000/svg" width="19.309" height="28.36" viewBox="0 0 19.309 28.36">
  <path id="Icon_metro-flow-cascade" data-name="Icon metro-flow-cascade" d="M23.812,23.587A3.616,3.616,0,0,0,20.529,25.7H15.515a2.264,2.264,0,0,1-2.263-2.263V17.628a5.225,5.225,0,0,0,2.263.528h5.014a3.62,3.62,0,1,0,0-3.017H15.515a2.264,2.264,0,0,1-2.263-2.263V9.371a3.62,3.62,0,1,0-3.017,0V23.436a5.28,5.28,0,0,0,5.28,5.28h5.014a3.617,3.617,0,1,0,3.282-5.129Zm0-9.028a2.089,2.089,0,1,1-2.089,2.089,2.088,2.088,0,0,1,2.089-2.089ZM11.744,4A2.089,2.089,0,1,1,9.656,6.088,2.088,2.088,0,0,1,11.744,4ZM23.812,29.3A2.089,2.089,0,1,1,25.9,27.207,2.089,2.089,0,0,1,23.812,29.3Z" transform="translate(-8.123 -2.468)" fill="#fff"/>
</svg>
